<?xml version="1.0" encoding="UTF-8"?><svg id="_レイヤー_2" xmlns="http://www.w3.org/2000/svg" xmlns:xlink="http://www.w3.org/1999/xlink" viewBox="0 0 400 50"><defs><style>.cls-1{fill:none;}.cls-2{fill:#054a97;}.cls-3{fill:#ea9313;}.cls-4{fill:#231815;}.cls-5{fill:#fff;}.cls-6{fill:#1aa15d;}.cls-7{fill:#d71718;}.cls-8{clip-path:url(#clippath);}</style><clipPath id="clippath"><rect class="cls-1" width="400" height="50"/></clipPath></defs><g id="_文字"><g class="cls-8"><path class="cls-4" d="M77.5781222,12.3566832h-7.7627569c.0886035-.4205999.020393-.7915063-.2214614-1.1457852-.3911239-.5129959-1.1495642-.8323193-1.8930775-.7382228-.6717128.055362-1.2196642.4153094-1.4781461,1.0259917-.6199408,1.3655326-1.3800817,2.5058384-2.4134424,3.5871921.3117654-.5923543.3117654-1.3453151-.0239965-1.9044145-.2896584-.5258444-.8266508-.8247613-1.4779571-.8247613h-7.7831768c.1237614-.9114888-.4833309-1.5461676-1.1495642-1.8046495-.8967508-.3450204-2.0038015-.1197935-2.4336599.9466333-.8340198,2.064832-1.954108,3.6240371-3.579823,5.0447428-.7822478.6994883-.60878,1.751177-.007369,2.4283694.3395538.4058619.8784227.7030783,1.4171156.7491818-.1974514.2915479-.3172449.6624543-.3172449,1.0258028,0,.8893818.6087929,1.7936905,1.75837,1.7936905h11.2280774v1.9669565h-9.4861719c-2.2012529,0-3.3545961.4650029-3.642365,3.0039073l-.1071339,1.3524952-.162307,1.4891051c-.1237614,1.2141847.051583,2.0686109.5793169,2.6607763.4614128.5020368,1.2160741.7750678,2.2603939.7750678h7.2350365c-2.3913222,1.8636015-5.6556139,3.4985751-9.3847064,4.6424709-.6014239.1919719-1.0129542.6513064-1.1217887,1.2510297-.1717544.7786578.136421,1.6497116.7306648,2.1589284.5405824.4612239,1.2417842.5959444,1.961477.3062859,4.1848369-1.5610946,7.9343358-3.926544,11.137584-6.9933712v6.0559965c0,.6291993.2989169,1.1312362.8394993,1.4541496.6790818.4077514,1.6276045.4077514,2.3157559,0,.5462508-.3229134.8266508-.8249503.8266508-1.4541496v-7.4213402h9.432713c.1069314,0,.1513343.007369.1513343.007369.0166275.022107.040624.084838.0166275.2269275v.062731c-.0683994,1.87286-.1366099,2.9190693-.5904648,3.3139722-.4797409.4115304-1.721701.1974514-3.9322124-.1456795l-1.1864092-.1827134c-.7140373-.1088345-1.3063782.1235725-1.6901466.6237198-.4096409.5626894-.5020368,1.3967092-.2104889,2.07957.3100649.6862619.9447437,1.1125303,1.762136,1.1752612,4.5559322.4374164,6.7978091.5830959,8.0488388-.4723719,1.2104057-1.0516888,1.3821601-3.1902107,1.5832016-6.8788683.0461035-.9409648-.2159684-1.7566566-.8026406-2.3711179-.6125855-.6477163-1.5314433-1.0074747-2.5519555-1.0074747h-10.0305332v-2.1551495h9.5619403c.9317063,0,1.6347846-.2416655,2.1071564-.7123368.4816304-.4871099.7325543-1.1735607.7325543-2.1218945v-3.4449137c0-.9264157-.2509239-1.6311946-.7325543-2.1109355-.4723719-.4633023-1.1754502-.7030783-2.1071564-.7030783h-1.1293467c.8634958-.3949029,1.1680812-1.1975572.8173923-2.0629425-.118093-.2860684-.3782754-.6496058-.5997233-.9946262h3.505944c.6439373,0,1.1809297-.2822894,1.4945846-.7915063.3376514-.5795058.3376514-1.3470157,0-1.9412595-.3136549-.5258444-.8506473-.8247613-1.4945846-.8247613M74.0612191,22.7894885v1.4484811c0,.2121894-.044403.2694409-.2416654.2694409h-8.3976382v-1.9669565h8.3976382c.110724,0,.1641965.0128485.1972625.055362.044403.033066.044403.092207.044403.1936725M50.3872637,18.971779c.7786578-.7437023,1.5665741-1.6958151,2.4357383-3.0575687h2.5370148c.4096409.6754918.7933958,1.4762566,1.1274572,2.2603939.1494585.3561684.4355269.6182403.7879163.7971748h-6.8881266ZM61.4400096,28.0649377v2.1551495h-9.3901859c-.044403,0-.0923959-.0128485-.095986-.0166275-.0111349-.0313655-.033255-.055362-.0111349-.118093l.0850269-.7620303c.088415-.4595234.1382974-.9152678.143777-1.1514537,0-.010959.0166275-.106945.2214479-.106945h9.047055ZM62.7409218,16.0784067c-.4540438.4096409-.6643438.9779987-.5388818,1.5610946.1311304.5443614.4982578,1.0259917.9891467,1.3322777h-4.1001878c.3359641-.1641965.6256093-.3690169.8230607-.6477163.3025069-.4778514.3210239-1.0203233.0349555-1.5739431-.1271493-.3062859-.3079865-.5812064-.4944789-.8359093h2.8527482c.3008064,0,.5645789-.058952.8026543-.1715655-.110724.1126135-.2435549.2159684-.3690169.3357619M65.1415156,18.971779c.1402-.0867275.2803999-.1993409.4096409-.3155444.8155028-.7546613,1.6219361-1.7198115,2.3064974-2.7420243h2.2806114c.3746854.6605648.7030918,1.3617537,1.0518777,2.109046l.029476.0997649c.2067099.4039724.4833444.6698233.8506473.8487578h-6.9287506Z"/><path class="cls-4" d="M110.2658777,23.105033h-28.3349432c-1.1291577,0-1.7214983,1.0996817-1.7214983,2.2031425,0,1.0609472.5923406,2.1589284,1.7214983,2.1589284h28.3349432c.5830958,0,1.0702057-.2768099,1.3821601-.8026543.4372274-.7824368.4372274-1.9669565,0-2.7235073-.3119544-.5334023-.7990643-.8359093-1.3821601-.8359093"/><path class="cls-4" d="M143.632715,38.6286846c-4.7422357-.7287753-8.5302802-2.0444255-11.5916278-3.974537,2.4818418-2.5593109,4.5207877-5.6665731,6.0578858-9.2241002.9908472.9133783,2.0002114,1.9115945,2.9430657,2.8803348.4134199.3930134.9152677.5534309,1.4539606.4188994.7104473-.1900824,1.3674221-.9392643,1.5905706-1.832425.2159684-.8026543.025886-1.5886811-.5184754-2.097898-2.6883628-2.6275214-4.7531947-4.5281569-7.9084498-7.0247367-.1606064-.1292409-.3395258-.2048204-.5148853-.2803999h7.5211049c.6254204,0,1.1421952-.2953269,1.4632191-.8359093.3782754-.6643438.3782754-1.5720536,0-2.2014419-.3210239-.5479514-.8377987-.8597168-1.4632191-.8597168h-11.8297032v-1.4945846c0-1.1607122-1.0645372-1.7345496-2.1477804-1.7345496-1.0535782,0-2.1292634.5738374-2.1292634,1.7345496v1.4945846h-11.4514278c-1.1329367,0-1.7307705.9704408-1.7307705,1.9448495,0,.9668508.5978338,1.9522185,1.7307705,1.9522185h7.233147c-.0884132.0755795-.1641965.1456795-.239776.2269275-2.2309179,2.8914828-4.5723561,5.0335948-7.5966844,6.9729648-.5849853.3654269-.8820128.9834783-.8377841,1.7105531.0460889.9373748.6569602,1.906115,1.4410975,2.2825009.5572099.2749204,1.1072397.225038,1.5758326-.103355,1.1236782-.7824368,2.2216594-1.6034191,3.2623891-2.5167974,1.5499466,3.3748137,3.4929066,6.2884034,5.7772969,8.6188974-3.0594581,1.902336-6.8660196,3.2143962-11.5804652,3.9431715-.6938344.1162035-1.1790402.5111064-1.3914332,1.1015712-.2858795.7011888-.0718005,1.6718186.5075163,2.3748969.4944789.5774274,1.1607122.8542373,1.8286606.7399233,5.5743513-1.0057742,10.1025081-2.8251618,13.7909766-5.4453141,3.657292,2.6201524,8.1762054,4.3972154,13.8057292,5.4453141.6607538.114314,1.3341671-.1624959,1.8231665-.7399233.5978338-.7030783.7933958-1.6737081.5424719-2.3748969-.2269274-.6052029-.7197058-.9853677-1.4171156-1.1015712M132.635331,18.1838627c-.5369923.6790818-.6883403,1.6718186.195562,2.4466974.7437023.6256093,1.4798466,1.2861742,2.1385219,1.8747495-1.5055436,4.0686335-3.5594165,7.3383917-6.0909518,9.781499-2.4208114-2.3304939-4.3675503-5.4305761-5.8547659-9.2259897.7546613-.8138023,1.5278396-1.769694,2.4374388-2.9912477.6736023-.9428543.2159684-1.8968565-.5405824-2.4890219-.0534725-.011148-.1088345-.044403-.1606064-.0867275h8.8533825c-.3746854.1456795-.7232958.3856444-.9779987.6900408"/><path class="cls-4" d="M149.8954213,17.8462113c.3229134.6033134.8561423.9262268,1.5000641.9466333.7750833.014738,1.5425776-.4060509,1.9189635-1.0702057.3580579-.6035023.3580579-1.3156502-.029476-1.979994-.6256093-1.1624127-1.8526425-2.9818003-2.9782102-4.2309405-.9095993-1.0314712-2.2934599-.8803122-3.1146312-.1606064-.6569748.5849853-.9466332,1.6219361-.092207,2.5814179,1.2619887,1.4337431,2.2898699,3.0188342,2.7954967,3.9136955"/><path class="cls-4" d="M177.1673388,38.1120987c-9.1706275.8026543-14.9035214.7601408-18.7656339-.1273515.1827134-.0831375.3597584-.173455.5056268-.3357619.3690169-.3174339.5479514-.7788468.5479514-1.2196642v-3.8067505h5.0706445v3.4061792c0,.6531958.280573,1.1661917.8285244,1.4855151.6273098.3856444,1.4798466.3856444,2.1128249,0,.5294344-.3193234.8302408-.8323193.8302408-1.4855151v-3.4061792h5.3068145v.6957093c0,.6087929-.062731.9188578-.2490344,1.0664268-.3155444.2694409-1.2381811.1568275-2.5999348-.103355-.5830958-.1014655-1.1034607.0867275-1.4705881.5369924-.4557444.5424719-.5555093,1.3838607-.2822894,2.068422.2656619.6441263.8523478,1.0148438,1.6310056,1.0887227,3.0373511.2822894,4.7496047.0092585,5.7276034-.8820128.7159268-.6439373,1.0222127-1.6200466,1.0222127-3.1664032v-12.6026929c0-.8062443-.2786994-1.5148022-.7750678-2.005691-.4833309-.5111064-1.1624127-.7712888-1.9004465-.7712888h-3.8934779c1.976231-.8839023,3.5779335-1.7640256,4.7975977-2.5887869.6938198-.4854093.9963267-1.4817361.7123368-2.4210004-.3692059-1.1809297-1.4634081-1.880229-2.9321067-1.880229h-16.5441634c-1.1015712,0-1.6901309.9022303-1.6901309,1.8046495,0,.4704824.1475533.8967508.4077358,1.2085162.3100649.4153094.7713045.5868748,1.2823952.5868748h2.5963447c-.4927783.4151204-.7548502,1.0018063-.6828608,1.5259501.0978912.5386929.4761508.9779987,1.1108297,1.1956677.3542789.1439789.7676988.2934374,1.2196642.4243789.1273673.0461035.2601824.0940965.3894234.1439789h-3.1737564c-1.5703688,0-2.6995265,1.1735607-2.6995265,2.7769798v15.2173657c0,.0940965,0,.2620719.0313655.3986819-.7990486-.4780403-1.4411121-1.0205122-1.836015-1.5629841v-11.2981907c0-.7675098-.1936725-1.3506057-.5866859-1.7566566-.3820544-.3616479-.9687247-.5940549-1.7271805-.5940549h-3.457951c-1.1752612,0-1.8193875,1.0110648-1.8193875,2.016839,0,.4925894.1641965.9815888.4576339,1.3266092.3340614.4224894.7952853.6422368,1.3617536.6422368h1.706774c.0776579,0,.1090234.007369.1347205.029476,0,0,.022296.062731.022296.1162035v10.4568019c-.5352918.8948613-1.4615186,1.8396051-2.7660053,2.8083453-.6273099.4538549-.9373902,1.1255677-.8359247,1.8783396.1292564.8377988.7491818,1.6810771,1.5223601,1.9928425.5681844.2233374,1.1272682.158717,1.5739431-.206521,1.5867916-1.2566982,2.5795283-2.3841554,3.3527066-3.3215301,3.60911,2.8731547,10.6393261,3.6960266,24.0835964,2.8731547.7195168-.0389234,1.3249248-.4889994,1.6735191-1.1809297.3837549-.8102123.3580741-1.865491-.07369-2.4708828-.2898474-.4317479-.7455918-.6218303-1.2585876-.5774274M173.6043323,23.9796767h-5.3068145v-2.0187285h5.0190456c.0461035,0,.1345315.0130375.2103.073879.044214.07369.077469.1383105.077469.2140789v1.7307706ZM173.6043323,29.4414294h-5.3068145v-2.2843904h5.3068145v2.2843904ZM159.4552832,23.9796767v-1.7307706c0-.0757684.0461035-.1403889.0940965-.2140789.077469-.0608415.1420895-.073879.2121894-.073879h4.7643586v2.0187285h-5.0706445ZM159.4552832,27.157039h5.0706445v2.2862799h-5.0706445v-2.2862799ZM166.2438338,17.6395013c-.7990643-.3966034-1.5960501-.8765333-2.4079628-1.3524952-.6403473-.3820544-1.2731208-.7454028-1.8008705-1.0295818h8.8365661c-1.3192402.8689753-3.1699931,1.7989811-4.6277327,2.3820769"/><path class="cls-4" d="M210.6227931,38.1139882h-9.9917987v-2.4136314h7.7387739c.6477163,0,1.1864262-.2730309,1.4928841-.8138023.3412414-.6327894.3412414-1.4724776,0-2.0850495-.3064578-.5479514-.8451677-.8340198-1.4928841-.8340198h-7.7387739v-2.1183045h8.6927931c.6458098,0,1.1809297-.2932485,1.4909776-.8302408.3578689-.6108713.3578689-1.4651086,0-2.0703115-.3100478-.5443614-.8451677-.8192818-1.4909776-.8192818h-8.6927931v-1.5463566c0-.5738374-.2361859-.9927367-.6106824-1.3045022h10.3147122c.6365683,0,1.1660027-.2915479,1.4632191-.8377988.3744964-.6218303.3744964-1.4705881,0-2.0924185-.2972164-.5386929-.8266508-.8525368-1.4632191-.8525368h-6.0080033c.3671274-1.0571683.7251853-2.2972389.9704408-3.2788277h3.5373095c.6439544,0,1.1533432-.3026959,1.4522601-.8119128.3690169-.5942438.3690169-1.4004882,0-1.998322-.2989169-.5203649-.8083057-.8230608-1.4522601-.8230608h-9.8385613v-.2822894c0-1.1569332-.9354853-1.7492876-1.858122-1.7492876-.9447437,0-1.87286.5923543-1.87286,1.7492876v.2822894h-11.5547828c-1.1108297,0-1.699405.9264157-1.699405,1.836015,0,.8746438.5885754,1.7972805,1.699405,1.7972805h3.9395814c.3026959.7658093.7952853,2.186515,1.1457852,3.2788277h-3.8638129c-1.909705,0-2.8416002.9024192-2.8416002,2.7512828v5.6352076c0,5.1038837-.7104473,9.1226347-2.0315769,11.6413216-.3469099.6550853-.2694409,1.4798466.1846029,2.1700764.4502649.7066683,1.1365267,1.1181987,1.7897225,1.0960917.3894234-.033255.9558917-.2140789,1.3968981-1.0499882,2.1884044-4.2808229,2.5094447-10.4568019,2.5094447-13.733929v-4.4635364c0-.1197935.027759-.1641965.0534561-.202931.0425135-.044214.110724-.0608415.2104889-.0608415h4.6073263c-.1568275,0-.3043799.0166275-.4574284.0534725-.6441428.132831-1.1165147.5645789-1.2899696,1.1754502-.7416238,2.4965799-1.5480406,4.195985-2.8342312,5.906538-.3966034.5368034-.4667034,1.1291577-.1936725,1.7011056.2934374.5997233.9207472,1.0390292,1.5813121,1.1901882-.1420895.5628783-.0572515,1.1975572.2288169,1.6440431.3136549.4872988.8304297.7510713,1.4356326.7510713h7.388085v2.4136314h-9.6596268c-1.1291577,0-1.7048846.9133783-1.7048846,1.8210881,0,.8967508.5757268,1.8046495,1.7048846,1.8046495h23.613114c.6310888,0,1.1533432-.2730309,1.4522601-.8192818.3338724-.5719479.3338724-1.3968981,0-2.002101-.2989169-.5184754-.8211713-.8043548-1.4522601-.8043548M200.1733605,19.4957339h-7.188933c-.2656619-1.0571683-.6327894-2.1366325-1.0497992-3.2788277h9.2112515c-.2435381,1.2731367-.5904648,2.3858559-.9725192,3.2788277M191.028619,29.8491808h5.640687v2.1183045h-6.8529821c.4298584-.6513064.8376098-1.3876396,1.2122952-2.1183045M197.2856568,23.2784879c-.3654269.3117654-.6163508.7306648-.6163508,1.3045022v1.5463566h-4.0741129c0-.0351445,0-.044403.0128485-.044403.077469-.202931.147569-.4039724.2085994-.6180514.1827134-.5424719.084838-1.0942022-.2896584-1.5131016-.3542789-.3949029-.9078987-.6218303-1.4983636-.6753028h6.2570378Z"/><path class="cls-4" d="M244.2738093,37.9847472c-4.0336779-.6218303-7.229557-1.4208946-9.5987677-2.4060734h8.7241239c.6494168,0,1.1605232-.3008064,1.4484811-.7971748.3283929-.5517304.3283929-1.2842847,0-1.828646-.2879579-.5148854-.7990643-.8138023-1.4484811-.8138023h-12.1783137v-1.5221712h10.0949648c.6310888,0,1.1478636-.2601824,1.4208946-.7731783.3210239-.5609888.3210239-1.2621777,0-1.8229776-.2915479-.5241438-.8119128-.8064333-1.4208946-.8064333h-10.0949648v-1.3341671h11.0213805c.6310888,0,1.1365267-.295138,1.4337431-.8081338.3246139-.5590994.3246139-1.3156502,0-1.87286-.2972164-.5148854-.8026543-.8228718-1.4337431-.8228718h-5.9397928c.3673164-.9171572.6439373-1.902525.8432783-2.5666799h6.1999753c.6548964,0,1.1809297-.2841789,1.4926951-.7952853.3063038-.5647678.2934374-1.3379461-.036845-1.924632-.3136549-.5462508-.8451677-.8525368-1.4558501-.8525368h-2.7218067c.7344438-.9428543,1.289782-1.795391,1.7307705-2.6182629.4742614-1.0055853-.0829485-1.965256-.9133604-2.3711179-.7841373-.4022719-1.8672094-.3062859-2.3580804.7123368-.9927545,1.972436-2.0149672,3.3895517-2.7548728,4.277044h-1.3470333v-3.9358025c0-1.1588227-.9687402-1.7492876-1.9227425-1.7492876-.9613712,0-1.9244254.5904649-1.9244254,1.7492876v3.9358025h-3.6516411v-3.9358025c0-1.1588227-.9558917-1.7492876-1.9172629-1.7492876-.9521127,0-1.9320009.5904649-1.9320009,1.7492876v3.9358025h-1.0535782c-.4723719-.7879163-1.5849021-2.5426834-2.9891692-4.4709054-.7287753-.9392643-1.9301115-.7988753-2.6811827-.1993409-.6734133.5075163-1.0258028,1.4171156-.3984929,2.2734314.3450204.4889994.7472923.9613713,1.1386052,1.4171156.2803999.3559795.5386929.6567859.7803583.9796993h-3.2548311c-1.1089402,0-1.717922.9613713-1.717922,1.8747495,0,.4355269.1439789.8599058.4058619,1.1440847.3266924.3709064.7603298.5536198,1.3120601.5536198h6.4711167c.3709064.7085578.7860268,1.7011056,1.1181987,2.5666799h-6.3363963c-1.1219605,0-1.6939255.8910823-1.6939255,1.7583571,0,.8820128.571965,1.7455086,1.6939255,1.7455086h11.0546355v1.3341671h-10.1412572c-1.1053502,0-1.6718185.8506473-1.6718185,1.7271805,0,.8487578.5664683,1.6754086,1.6718185,1.6754086h10.1412572v1.5221712h-12.2338646c-1.0942022,0-1.6882571.8746438-1.6882571,1.72907,0,.8449788.5940549,1.7105531,1.6882571,1.7105531h8.9013755c-2.9689517,1.3413472-6.5005927,2.072012-9.6227818,2.6422594-.6957093.1383105-1.2030367.5239549-1.3710121,1.1144197-.247145.6643438-.0349555,1.4798466.4704824,2.0519835.4835198.5092169,1.1514537.7178163,1.8267565.5626894,4.5188983-1.0295818,8.2555487-2.5906763,12.0290441-5.0798872v4.5319358c0,.6439373.291359,1.1735607.8340198,1.4651086.6106999.3763859,1.4668091.3763859,2.0776804,0,.5313239-.2915479.8266508-.8211713.8266508-1.4651086v-4.5319358c3.7290925,2.4504764,7.7793979,4.133254,12.1137111,4.9249492.6255914.1456795,1.2583987-.1014655,1.7160147-.6346789.5184754-.6274988.7011888-1.5223601.4650029-2.1995524-.2048204-.5296234-.6439373-.8487578-1.2417712-.9761093M226.7350197,22.3762576c-.2803999-.7584403-.6291993-1.743808-.9687402-2.5666799h7.4196394c-.2509239.7563619-.5812063,1.7288811-1.0093642,2.5666799h-5.441535Z"/><path class="cls-4" d="M283.545295,26.5796116c.3025069.2526245.6548964.3210239,1.0295817.199152.4170099-.14379.7656203-.5443614.8561268-.9723303.06651-.3967924-.0755795-.7898058-.4134199-1.0794642-.5774274-.5222544-.7489928-.6125719-1.6200466-1.0887227-.697391-.3892344-1.4354436-.047993-1.7602465.5094058-.2325959.4667034-.180824,1.0923127.4612239,1.4649197.9834782.5426608.9927556.5426608,1.4467806.9670397"/><path class="cls-4" d="M263.9566004,33.7260313h2.9891692c.3818654,0,.6919303-.173455.8708833-.5001473.2031014-.3578689.2031014-.8468683,0-1.2158852-.178953-.3119544-.4890179-.4927783-.8708833-.4927783h-4.1738778v-2.8138248h3.6812885c.3799759,0,.6788929-.1641965.8744548-.4723719.1974514-.3727959.1974514-.8599058,0-1.2308122-.195562-.3155444-.4944789-.4723719-.8744548-.4723719h-3.6812885v-2.0591635c0-.6771923-.544343-1.0222128-1.0960733-1.0222128-.5460619,0-1.1089585.3450204-1.1089585,1.0222128v2.0591635h-1.2769156c.132831-.4483754.2675514-.9041198.4022719-1.4023776.0831374-.3597584-.018328-.7085578-.2785105-.9557028-.3229134-.2972164-.8009537-.4243789-1.1847087-.2972164-.3487994.081248-.5866859.3616479-.6641548.7308538-.4650029,1.94296-1.1091292,3.4781686-2.0814594,4.9746428-.3709064.6161619-.0092585,1.2878747.4944789,1.6126776.4778514.2970274,1.1219777.3265034,1.4964741-.2620719.3357619-.5700584.7197058-1.3506057,1.0794642-2.2252495h2.01306v2.8138248h-3.8417059c-.3136549,0-.5793169.1420895-.7527718.3746854-.3136549-.5222544-.7472741-1.1274572-1.2529191-1.865491l-.6717128-.9354853h1.0961099c.3395227,0,.6144432-.158717.7786396-.4483754.2048204-.3542789.2048204-.8746438,0-1.2122952-.1641965-.2934374-.4391169-.4502649-.7786396-.4502649h-1.3064098v-2.5113179c0-.6771923-.5332134-1.0222128-1.0702057-1.0222128-.5369742,0-1.0756852.3450204-1.0756852,1.0222128v2.5113179h-1.4484811c-.5481403,0-.8102122.5369924-.8102122,1.0554677,0,.5037374.2620719,1.0554677.8102122,1.0554677h1.3912296c-.5997233,2.2953494-1.577722,4.269675-2.4485868,5.928645-.1826954.3578689-.1587169.7435133.0423245,1.0756852.2361859.3671274.6053918.5940549.9965157.5776163.3469099-.022296.6403473-.2528134.8192818-.6144613.2195584-.4502649.4445964-1.1718602.6477163-1.8785285v7.3752367c0,.3856444.173266.6809713.4925894.8691643.3414304.195562.8192818.195562,1.1754502,0,.3229134-.188193.4778514-.4835199.4778514-.8691643v-9.7130996c.2380754.5277339.4372456,1.0647262.5313239,1.3230192.1126135.3210239.3395409.5148854.6310888.5424719.3046036.018517.6588643-.177045.8912712-.4519654.1679754.2749204.4631134.4704824.8340198.4704824h2.6755143c-1.1236782,1.928222-2.2843904,3.4596517-4.5041603,5.0742188-.269252.1938614-.4151204.5129959-.3671274.8377988.0608597.4650029.4151204.8948613.8691642,1.0702057.3892344.1366099.7435133.081248,1.0331718-.1753444,1.5482643-1.2952437,3.1756616-3.3232307,4.1351434-5.1388392v6.161052c0,.3856444.1846029.6809713.4944789.8691643.3635374.195562.8580163.195562,1.2308121,0,.3062859-.188193.4797409-.4835199.4797409-.8691643v-6.1776795c.7123368,1.4004882,2.0831599,3.7476096,3.8048609,5.0540012.5203649.3782754,1.1217887.118093,1.4430016-.2896584.3486289-.4612239.4410064-1.1569332-.051772-1.5554261-1.8526425-1.4467806-2.8841137-2.8508588-4.0113819-4.8603288"/><path class="cls-4" d="M278.0797635,38.3169191c-.6458268.1273515-1.1127192.302507-2.4578453.5424719l-.2416468.0349555v-5.1535772h2.0997688c.3892344,0,.6845613-.188193.8801233-.5037374.2085994-.3561684.2085994-.8487578,0-1.2270332-.195562-.2989169-.4908888-.4889994-.8801233-.4889994h-6.6797161c-.6698233,0-1.0074747.5738374-1.0074747,1.1144197,0,.5481403.3376514,1.1053502,1.0074747,1.1053502h2.2898885v5.4968971l-.4279875.081059c-.9908472.151348-1.9522185.2972164-2.8693757.4281579-.3486104.0534725-.6180514.2361859-.7435133.5702473-.1606064.4058619-.088617.9464443.202931,1.3082812.219577.324614.5664683.4427069.9485227.3930134,3.5205117-.4854093,7.1150541-1.2087052,8.1814808-1.5021426.7510713-.2231485,1.0388402-.9464443.8931607-1.5221712-.125462-.4502649-.5405824-.8487578-1.1956677-.6771923"/><path class="cls-4" d="M306.8906686,27.6885518c-3.2531112-1.0038847-5.441535-2.109046-7.377126-3.7088751-.8689753-.7011888-2.035167-.7011888-2.9392867,0-2.0500939,1.5998291-4.5374152,2.8451903-7.3863845,3.6682511-.3580579.1126135-.5997233.3782754-.6864508.7380338-.114314.4704824.0701,1.0352502.4410064,1.3912297.2934564.2953269.6790818.3765749,1.0609472.2639614.4927974-.151348,1.0426383-.3100649,1.4724776-.4761509-.092207.2492234-.103355.5203649-.0092585.7935848.1494585.4519654.5481403.7416239,1.0131432.7416239h11.2483079c.4355269,0,.8192818-.2342965.9815887-.6513064.1162035-.2768099.1162035-.5590994.0056685-.8394993.4685929.1789345,1.1217887.3818654,1.3284986.4631134.7251853.217669,1.3266092-.3155444,1.5221711-.9171572.1568275-.5368034.022296-1.2196642-.6753028-1.4668092M298.078099,25.8599058h.099576c1.1070507.8525368,2.7824786,2.053684,4.9045427,3.0519003h-10.0932642c2.1311529-.9761093,3.9155849-2.182736,5.0891456-3.0519003"/><path class="cls-4" d="M296.1294706,34.977061h10.2593502c.3542789,0,.6605648-.1679754.8599058-.4982579.2231485-.3635374.2231485-.8468683,0-1.2049262-.1993409-.3338724-.5056268-.4944789-.8599058-.4944789h-16.6437394c-.6771923,0-1.0148437.5498409-1.0148437,1.1015712,0,.5296234.3376514,1.0960917,1.0148437,1.0960917h3.8196181c-.575746,1.2621777-1.6164757,3.3491166-2.8195124,4.9192808-.3561684.022107-.6938198.0387345-1.0554677.0387345-.3727959.0054795-.6643438.1827134-.8340198.4797409-.202931.3746854-.1679754.8839023.073879,1.2880636.2195584.3338724.5904648.5332134,1.0074747.5146964,7.332723-.3321719,12.9310855-1.0167332,14.625011-1.3266092.2490344.3726069.4835198.7805473.6974098,1.1457852.173455.3248029.4576339.4889994.7843263.4889994.4372274,0,.8929718-.2989169,1.1274572-.7325543.2361859-.4058619.221259-.8599058-.0351445-1.2602882-1.0590577-1.6495226-2.4283693-3.4486926-3.8842194-5.0594808-.4205999-.4650029-1.0609472-.3302824-1.4705881.029476-.3782754.3321719-.5959444.9466333-.1235725,1.4798466.4298584.4816304.9409648,1.1072397,1.5758326,1.9559975-1.9006355.2435549-5.4028005.6087929-9.5951762.8155028,1.0720761-1.7105531,1.8471438-3.3914412,2.3675279-4.5207879l.1235533-.2564035Z"/><path class="cls-4" d="M326.7082001,40.2045172c-.1827334-.3155444-.4890193-.5001473-.8378187-.5001473h-3.1645136v-9.8145651h2.7548727c.3635374,0,.6790818-.158717.8617952-.4816304.2121894-.4058619.2121894-.9226368,0-1.3118712-.1827134-.2953269-.4982578-.4816304-.8617952-.4816304h-2.7548727v-3.0112763c0-.3673164-.1347205-.6736023-.4022719-.8765333-.21389-.1606064-.5201759-.2730309-.8376098-.2730309-.6329783,0-1.2657677.4058619-1.2657677,1.1495642v3.0112763h-2.8546377c-.6660443,0-1.025783.5738374-1.025783,1.1699707,0,.5386929.3597387,1.1051613,1.025783,1.1051613h2.8546377v9.8145651h-4.2643843c-.6788929,0-1.04071.5647678-1.04071,1.1404947,0,.5793169.3618172,1.1678922,1.04071,1.1678922h9.9345473c.3487994,0,.6550853-.1751555.8378187-.4797409.221428-.4039724.221428-.9466333,0-1.3284987"/><path class="cls-4" d="M315.8103722,35.6708808c.4243986-.1347205.7769573-.5628783.8470572-1.0167332.066321-.3580579-.0536614-.6900408-.3635374-.9152678-.3174339-.2675514-.7712888-.6477163-1.2160741-1.0258028-.3652379-.2915479-.7140373-.5740263-.9742197-.7916953.7251853-.7988753,1.3562741-1.6311946,1.861901-2.4671039.4648139-.7952853.5277339-1.6937366.1825245-2.29346-.1715655-.3174339-.5645789-.7104473-1.3672331-.7104473h-1.3192402v-1.9816945c0-.6771923-.5702473-1.0222128-1.1331256-1.0222128-.5738373,0-1.1291381.3450204-1.1291381,1.0222128v1.9816945h-1.8267761c-.6753028,0-1.0203232.5315128-1.0203232,1.0609472,0,.5296234.3450204,1.0480987,1.0203232,1.0480987h4.6407702c-1.2548086,1.968846-3.343637,3.8878095-5.7718174,5.3419591-.3285819.1898935-.5186643.5092169-.4963684.8801233,0,.4096409.2582929.8599058.6548964,1.0756852.3321719.1715655.6975988.147569.9853873-.0423245.5849658-.3414304,1.1625821-.7363333,1.813908-1.2234432v6.9877028c0,.3709064.1641769.6698233.4778318.8580163.3875535.2233374.9133782.2233374,1.2897642,0,.3138439-.188193.4946678-.4871099.4946678-.8580163v-7.4638536c.162307.151348.339352.3285819.5220654.5388818.3210239.2896584.6256093.5978339.8636847.8192818.2730309.2435549.6125718.287769.9630718.1974514"/><path class="cls-4" d="M281.0283087,28.7846435h5.0485216c.6660443,0,1.0259917-.5740263,1.0259917-1.1514537,0-.5757268-.3599474-1.1386052-1.0259917-1.1386052h-5.1167321v-1.8911881c0-.4096409-.180824-.7418128-.5075163-.9466333-.3818654-.2342965-.900322-.2342965-1.2990039-.018517-.3265222.2195585-.5294532.5424719-.5294532.9651502v.3302824c-.0056685.1677865,0,1.3783812,0,1.5609056h-8.6927761c-.6790818,0-1.0295817.5628783-1.0295817,1.1329367,0,.5830959.3504999,1.1571222,1.0295817,1.1571222h8.7942416c.3911239,7.1390507,2.0406465,13.7411091,5.489339,13.7411091,2.3361623,0,2.7106587-2.4060734,3.0335721-4.5336364l.1052445-.6624543c.132831-.7251853-.3820544-1.1956677-.9281163-1.2916537-.4816304-.095986-1.0480798.1420895-1.1828192.8487578-.047993.2934374-.0995571.6218303-.1439789.9540023-.1420895.9946262-.3008064,2.2622834-.8285214,2.2622834-1.0369696,0-2.8433197-4.1793575-3.2420015-11.3184082"/><path class="cls-5" d="M38.7994275,26.1901882c0,9.3552306-7.5727006,16.9279188-16.9094141,16.9279188S4.9694641,35.5454188,4.9694641,26.1901882c0-9.3625997,7.5838359-16.9500258,16.9205493-16.9500258s16.9094141,7.5874261,16.9094141,16.9500258"/><path class="cls-7" d="M34.5609165,13.7535813c-3.4099581-3.4006997-7.9307458-5.2865972-12.7393025-5.2865972-4.8121467,0-9.3459719,1.8858975-12.7466715,5.2865972-3.4080686,3.4042897-5.2864081,7.9379261-5.2864081,12.7576308,0,4.8085568,1.8783395,9.3459722,5.2864081,12.7761478,3.4006996,3.3952201,7.9345248,5.2699697,12.7466715,5.2699697,4.8085567,0,9.3293444-1.8747495,12.7393025-5.2699697,3.4025891-3.4301757,5.282818-7.967591,5.282818-12.7761478,0-4.8197048-1.880229-9.3533412-5.282818-12.7576308M21.821614,41.9592843c-4.1239832,0-7.9970668-1.5998291-10.9068775-4.5243779-2.9135897-2.9228483-4.5188983-6.8087683-4.5188983-10.9236942,0-4.1349545,1.6053086-8.0063255,4.5188983-10.9142468,2.9098107-2.9173687,6.7828943-4.5171978,10.9068775-4.5171978,4.1130363,0,7.9934768,1.5998291,10.8959185,4.5171978,2.9209587,2.9079213,4.5188983,6.7792923,4.5188983,10.9142468,0,8.5174319-6.9194921,15.4480721-15.4148168,15.4480721"/><path class="cls-7" d="M30.3243077,37.4349064c.7197058,0,1.3028016-.5868748,1.3028016-1.3120601v-.3597584c0-.7085578-.5830958-1.2990227-1.3028016-1.2990227H13.5736233c-.7251853,0-1.2971332.5904649-1.2971332,1.2990227v.3597584c0,.7251853.5719479,1.3120601,1.2971332,1.3120601h16.7506844Z"/><path class="cls-7" d="M29.6896288,25.5388818l-6.2313408.025886c-.0166152-.1900824-.0349555-.3673164-.0423245-.5721368h5.552259c.7287753,0,1.3154612-.5757268,1.3154612-1.2916537v-3.0243137c.01305-.0755795.029665-.180824.029665-.2785105,0-.2547029-.0831374-.5129959-.2233374-.7142263-.2307064-.3726069-.6346788-.6346789-1.1217887-.6346789-.0204065,0-.0389234,0-.0683994.003779v-.7270748h.8801233c.7197058,0,1.2935431-.5702473,1.2935431-1.2842847,0-.7214063-.5738373-1.3137607-1.2935431-1.3137607h-3.2087276c.1494585-.6052029-.0313655-1.2657677-.8617952-1.5333191-.9761092-.3045854-1.6533015.0349555-1.953919.7418128-.2104889.5258444-.7455918,1.8137191-.9558917,2.068422-.7491818.8413888-.6291993,1.5000641.025886,1.957698.132831.0682105.2675514.1309415.3984929.1772339h-3.5002756v-.8138023h.8689753c.7233081,0,1.2973221-.5702473,1.2973221-1.2842847,0-.7214063-.574014-1.3137607-1.2973221-1.3137607h-3.2142072c.154938-.6052029-.025886-1.2657677-.8563157-1.5333191-.9594817-.3045854-1.6568795.0349555-1.9522185.7418128-.2195584.5258444-.7454028,1.8137191-.9575923,2.068422-.7601408.8413888-.6237198,1.5000641.0351445,1.957698.180824.1145029.3856444.1919719.586698.2656619-.5683699.1477579-.7197179.6384578-.7197179,1.1699707,0,.6955204.2252269,1.2529192,1.2566981,1.2529192h5.0613701c.011148.202931.022107.4685929.0313655.7195169h-4.6609877c-.6052028,0-1.3691226.5388818-1.4743671,1.0609472l-.6420478,3.4211061c-.073879.4058619.0202175.7805473.2749204,1.0942022.2509239.2970274.6273098.4612239,1.0129542.4612239h2.1736664c-.8765332.7382228-1.9374805,1.4817361-2.7641312,1.8821185-.6974098.3525784-.9041198,1.0131432-.5553204,1.7124425.3376514.6974098,1.2731367,1.0756852,1.7970915.8468683,1.5943495-.7508823,4.2957498-2.7881278,5.33459-4.4191334.1919719,1.87286.2084105,2.8655968.3782754,3.6977271.1383105.7232958,1.0830542.8689753,1.902336.8119128.7437023-.047993,1.4392226-.7990643,1.3082811-1.5021426-.0275742-.3153555-.1383105-1.5480571-.2675391-3.0685277l4.096409-.00359v1.4263741c-.4706838.040435-1.3857625.1124245-1.594362.1124245-.2140789-.014738-.7988753.3321719-.8672748.9392643-.0755795.6016128.2067099,1.2289227.4262684,1.3876396.3266924.2140789.7049678.2582929,1.4541496.2140789.4187229-.0239965,1.1771507-.014927,1.846974-.0942854h.058952c.6736023,0,1.906115-.5092169,1.906115-1.5240606v-3.974537c0-.3523894-.14379-.6771923-.3892344-.9262268-.2547029-.2492234-.5849853-.3875339-.9300057-.3875339M24.8257102,18.8629445c.1162158-.125462.2528134-.3155444.4077514-.5590994.0940965,0,.1900824.022107.2768099.022107h.2803999v.8138023h-1.3562741c.1347205-.0572515.2694533-.1532374.3913129-.2768099M16.0462187,18.3038451c.0848259,0,.1770328.022107.2694288.022107h.2858795v.8138023h-1.3506057c.132831-.0572515.2637725-.1532374.3856444-.2768099.1162035-.125462.2509361-.3155444.409653-.5590994M23.1852571,21.6510723h3.8749609v.7195169h-3.8362264c-.007369-.2749204-.029476-.5165859-.0387345-.7195169M16.7086609,24.992631h3.3341896c.0166397.2048204.0313655.3930134.040624.5923543l-3.528051.0166275.1532374-.6089818Z"/><polyline class="cls-2" points="394.3809301 27.2180694 396.2114655 27.2180694 396.2114655 11.7754768 335.4211738 11.7754768 335.4211738 27.2180694 337.5912501 27.2180694"/><polyline class="cls-6" points="337.5912501 27.2180694 335.4211738 27.2180694 335.4211738 42.6512146 396.2114655 42.6512146 396.2114655 27.2180694 394.3809301 27.2180694"/><path class="cls-5" d="M345.477593,20.2874292c-.5479514-.5424719-1.2362917-.8285403-2.0149494-.8285403h-4.1185159v15.5162826h4.0484159c.7140577,0,1.3653437-.2620719,1.9189635-.8266508.6900408-.6753028,1.1994467-1.7935016,1.5480776-3.2880862.3378199-1.4909946.3930134-3.0188342.3930134-4.004202,0-.9058203-.0551935-2.2362085-.3393725-3.5444897-.3026959-1.3617537-.7843263-2.3748969-1.4356326-3.0243137M345.2026726,27.094308c0,1.1939672-.1384994,5.1259907-2.0427045,5.1259907h-1.8524739v-10.0157955h1.8267565c.3025069,0,.7011888.059141,1.0868332.4300474.6513063.6548964.9815887,2.1513705.9815887,4.4597574"/><path class="cls-5" d="M353.9064077,19.5031029v-.0461035h-2.2898699l-.0054795.0461035-3.3011236,15.4167066-.010959.0572515h2.107177l.0147174-.033255.6291993-3.1441072h3.365744l.5793169,3.1441072.0092585.033255h2.1755766l-.0018895-.0572515-3.2716683-15.4167066ZM352.743995,23.1069224l1.1089402,5.939604h-2.2713529l1.1624127-5.939604Z"/><polygon class="cls-5" points="358.5951917 19.4569994 358.5619159 19.4569994 358.5619159 19.5031029 358.5619159 34.9419165 358.5619159 34.977061 358.5951917 34.977061 360.5400203 34.977061 360.5713858 34.977061 360.5713858 34.9419165 360.5713858 19.5031029 360.5713858 19.4569994 360.5400203 19.4569994 358.5951917 19.4569994"/><path class="cls-3" d="M368.9153625,19.6601193h.0202175l.040624-.0204065v-.6771923h-5.1720941v.6771923l.0313655.0204065h.0351654c.6752819.0701,1.2842637.1345315,1.2842637,1.6827776v11.7594146c0,1.4798466-.5369923,1.5646846-1.3194291,1.6791876l-.0313655.010959v.6681228h5.1720941v-.6681228l-.040624-.010959c-.7639198-.0940965-1.3506057-.1568275-1.3506057-1.6791876v-11.7594146c0-1.5979396.6439373-1.6497116,1.3303881-1.6827776"/><path class="cls-5" d="M377.4107085,29.6075153h-.0387558l-.0092585.0275865c-.2159684,1.8526425-.9485227,2.8674863-2.0075804,2.8674863-.4003824,0-.7491818-.1456795-1.0573572-.4631134-.7527718-.7418128-1.2030367-2.4873214-1.2030367-4.7679328,0-3.0243137.6660443-4.3159674,1.2308121-4.8862147.3930134-.3690169.7786578-.4650029,1.0295817-.4650029,1.5739431,0,1.861712,1.7124425,2.0075804,2.6386693l.0092585.033255h1.998322v-.033255c-.0425135-1.3303882-.4170099-2.6386693-1.0019952-3.6221476-.7268858-1.2436607-1.773284-1.8838191-3.0260142-1.8838191-1.2327016,0-2.2808003.7121478-3.048289,2.0739015-.8119339,1.4356326-1.2417923,3.5501581-1.2417923,6.109469,0,1.7050735.188193,3.1977687.535124,4.4376504.3542578,1.1847087.8356992,2.0888285,1.474157,2.7365448.6329783.6550853,1.4116361.9706297,2.2568038.9706297,1.1403057,0,2.0536839-.5500298,2.7788692-1.6183461.6439373-.9834783,1.0811647-2.3784869,1.2731367-4.1092575v-.0461035h-1.9595662Z"/><polygon class="cls-5" points="386.6791901 19.4569994 386.6347872 19.4569994 386.6347872 19.5031029 386.6347872 25.3174339 383.0993672 25.3174339 383.0993672 19.5031029 383.0993672 19.4569994 383.0625222 19.4569994 381.1231522 19.4569994 381.0863072 19.4569994 381.0863072 19.5031029 381.0863072 34.9419165 381.0863072 34.977061 381.1231522 34.977061 383.0625222 34.977061 383.0993672 34.977061 383.0993672 34.9419165 383.0993672 28.0594582 386.6347872 28.0594582 386.6347872 34.9419165 386.6347872 34.977061 386.6791901 34.977061 388.6055226 34.977061 388.6387776 34.977061 388.6387776 34.9419165 388.6387776 19.5031029 388.6387776 19.4569994 388.6055226 19.4569994 386.6791901 19.4569994"/><polygon class="cls-5" points="392.6648975 19.4569994 390.7478235 19.4569994 390.6998306 19.4569994 390.6998306 19.5031029 390.6998306 34.9419165 390.6998306 34.977061 390.7478235 34.977061 392.6648975 34.977061 392.7055215 34.977061 392.7055215 34.9419165 392.7055215 19.5031029 392.7055215 19.4569994 392.6648975 19.4569994"/><path class="cls-4" d="M336.249714,5.9889212h1.3432366c.2344854,0,.4170099.0128485.6108916.114314.1770247.088617.3247826.3174339.3247826.5980228,0,.247145-.1477579.5092169-.3692059.5995344-.2416654.1145029-.4317276.1145029-.6881513.1145029h-1.2215537v-1.4263741ZM335.6758767,9.8287378h.5738373v-1.894967h.6439373c.4835198,0,.6753231.029476,1.3101909.9834783l.5536198.9114888h.7121275l-.7472923-1.1661917c-.3376514-.5239549-.5904648-.6862619-.8119128-.7933958v-.018328c.7325543-.0831375,1.2049262-.4706713,1.2049262-1.1495642,0-.4706713-.2380754-.9060093-.6733931-1.0739847-.2824987-.1218719-.5591196-.1218719-.8580365-.1218719h-1.9080045v4.3233364Z"/><path class="cls-4" d="M342.8906957,8.891363c-.1660859.5887643-.6089818,1.0038847-1.3710121,1.0038847-.9779987,0-1.5112121-.6550853-1.5112121-1.5979396,0-.9668508.5220654-1.6551911,1.4705881-1.6551911.2694613,0,1.4686986.06651,1.4207056,1.7713946h-2.3395634c.044214.7287753.4797612,1.0499882.9594817,1.0499882.5812063,0,.7454028-.4466749.8119128-.6365683l.5590993.0644315ZM342.3463343,7.9632468c-.003779-.1124245-.014738-.2490345-.081248-.3837549-.1014655-.2786994-.4077514-.5148854-.7860268-.5148854-.5830958,0-.8580163.4835199-.8857917.8986403h1.7530665Z"/><path class="cls-4" d="M345.7819894,8.4503566c0,.2749204-.014738.5001473-.2361859.7344438-.239776.2786994-.5997233.2953269-.7582513.2953269-.4650029,0-.6127608-.2751094-.6127608-.4889994,0-.4079404.4134199-.4742614.7344438-.5277339.2713304-.044403.6717128-.1273515.8727543-.2012304v.188193ZM344.2061569,7.6607398c.0719895-.2620719.1513479-.5961333.8211713-.5961333.7843263,0,.7750678.4355269.7546613.7769573-.3008064.1124245-.8727543.180824-.9540022.195562-.3412414.0313655-1.2325127.1420895-1.2325127.9779987,0,.5073274.3782754.8801233,1.0702057.8801233.3357619,0,.7140373-.06651,1.1624127-.4410064.0073895.0682105.0166275.2103.095986.3744964h.5590993c-.1734345-.295138-.1734345-.5073274-.1734345-1.3118712v-.7178163c0-.5405824,0-1.1569332-1.2104262-1.1569332-1.2011472,0-1.3396466.6698233-1.4023776.9632607l.5092169.055362Z"/><rect class="cls-4" x="347.3706705" y="5.5054014" width=".5296233" height="4.3233364"/><polygon class="cls-4" points="352.8473706 5.5054014 355.9859776 5.5054014 355.9859776 6.0221762 353.4323353 6.0221762 353.4323353 7.3304574 355.8089326 7.3304574 355.8089326 7.8508222 353.4323353 7.8508222 353.4323353 9.3214104 356.0727258 9.3214104 356.0727258 9.8287378 352.8473706 9.8287378 352.8473706 5.5054014"/><path class="cls-4" d="M357.3349035,8.8269315c.0645997.4132309.3228927.6365683.8135926.6365683.5573988,0,.7142263-.2786994.7142263-.4927783,0-.2454444-.202931-.3431309-.5129959-.4336374l-.3395409-.07369c-.4944789-.1163924-1.1070507-.2805889-1.1070507-.9281163,0-.4816304.3966034-.8931608,1.1476747-.8931608,1.1015712,0,1.2011472.6144613,1.2436607.8580163l-.5165859.0793585c-.059141-.4723719-.4761508-.5148854-.6828608-.5148854-.2195584,0-.6845406.055362-.6845406.4022719,0,.2749204.2342965.3193234.7380131.4668924.8285403.2103,1.2640671.3283929,1.2640671.9834783,0,.5129959-.4355269.9798882-1.2583987.9798882-1.1312362,0-1.2769156-.6994883-1.3415361-1.0057742l.5222751-.0644315Z"/><path class="cls-4" d="M361.4976126,9.8287378c-.0829485.003779-.2121894.044403-.3856235.044403-.7418336,0-.7418336-.4428959-.7418336-.9558917v-1.7989811h-.3856444v-.4170099h.3856444v-.7695883l.5315128-.3283929v1.0979812h.5296442v.4170099h-.5296442v1.8174981c0,.247145,0,.4538549.2915688.4538549.0921861,0,.1826926-.0239965.2380754-.033255l.0663002.4723719Z"/><path class="cls-4" d="M364.2192304,8.4503566c0,.2749204-.025697.5001473-.2490344.7344438-.232407.2786994-.5866859.2953269-.7454028.2953269-.4742614,0-.6310888-.2751094-.6310888-.4889994,0-.4079404.4372274-.4742614.7546613-.5277339.2620719-.044403.6679338-.1273515.8708648-.2012304v.188193ZM362.6490663,7.6607398c.055362-.2620719.1513479-.5961333.8100233-.5961333.7693993,0,.7693993.4355269.7601408.7769573-.3136549.1124245-.8708648.180824-.9575923.195562-.33952.0313655-1.2251437.1420895-1.2251437.9779987,0,.5073274.3763859.8801233,1.0571682.8801233.3359509,0,.6957302-.06651,1.1514537-.4410064.0147589.0682105.0313655.2103.118093.3744964h.5443613c-.1660859-.295138-.1660859-.5073274-.1660859-1.3118712v-.7178163c0-.5405824,0-1.1569332-1.2104057-1.1569332s-1.3543846.6698233-1.4135256.9632607l.5315128.055362Z"/><path class="cls-4" d="M367.0037681,9.8287378c-.077469.003779-.2085994.044403-.3894234.044403-.7325543,0-.7325543-.4428959-.7325543-.9558917v-1.7989811h-.3875339v-.4170099h.3875339v-.7695883l.5388818-.3283929v1.0979812h.5296233v.4170099h-.5296233v1.8174981c0,.247145,0,.4538549.2951379.4538549.0793585,0,.1679754-.0239965.2344854-.033255l.0534725.4723719Z"/><path class="cls-4" d="M368.1145978,7.9651362c.033066-.4170099.3062859-.9005298.8948613-.9005298.3782754,0,.6643438.2380754.7879163.5148854.058952.1347205.0701.2713304.0793585.3856444h-1.762136ZM369.8674753,8.8269315c-.0701.1898935-.2288169.6365683-.8340198.6365683-.4668924,0-.9041198-.3212129-.9466332-1.0480987h2.3304939c.055362-1.7067741-1.1365267-1.773284-1.4078571-1.773284-.9575923,0-1.4669981.6900408-1.4669981,1.6533016,0,.9447438.5315128,1.6017186,1.4909946,1.6017186.7860268,0,1.2068157-.4170099,1.3710332-1.0057742l-.5370134-.0644315Z"/><path class="cls-4" d="M375.5414172,8.3932941c.007369.0976865.037034.2841789.118093.4336374.2380754.4685929.8359093.5700584,1.1607122.5700584.5904861,0,1.0720952-.2711415,1.0720952-.7344438,0-.5184754-.4410064-.6254204-1.3101706-.8321303-.5626894-.1402-1.4078571-.3357619-1.4078571-1.1882987,0-.6734134.5443613-1.1994467,1.5000641-1.1994467.9392642,0,1.596239.4355269,1.6219361,1.3009122l-.5460619.036845c-.037034-.3210239-.1477579-.8376098-1.0426192-.8376098-.3727959,0-1.0055852.118093-1.0055852.6660444,0,.3506889.2509239.5094058,1.0424302.6809713.7879163.1677865,1.6903568.3726069,1.6903568,1.3192402,0,.7306648-.6182616,1.2861742-1.5813334,1.2861742-1.0480987,0-1.5185811-.3949029-1.736439-.9245262-.1050555-.2454444-.1050555-.4096409-.1162035-.5239549l.5405824-.0534725Z"/><path class="cls-4" d="M379.7927641,7.9651362c.0313655-.4170099.3008064-.9005298.9024192-.9005298.3856444,0,.6734133.2380754.7786578.5148854.0646205.1347205.0755795.2713304.1014655.3856444h-1.7825425ZM381.5494206,8.8269315c-.0755795.1898935-.2342964.6365683-.8339984.6365683-.4759832,0-.8986616-.3212129-.9392856-1.0480987h2.3304939c.044403-1.7067741-1.1531329-1.773284-1.4114471-1.773284-.9521127,0-1.4596291.6900408-1.4596291,1.6533016,0,.9447438.5184754,1.6017186,1.4798679,1.6017186.769378,0,1.2122738-.4170099,1.3672118-1.0057742l-.5332134-.0644315Z"/><path class="cls-4" d="M385.540585,8.7456835c-.1677865,1.0590578-1.0258028,1.1495642-1.2916536,1.1495642-1.0462092,0-1.4190051-.7898058-1.4190051-1.6330841,0-1.3026127.7805473-1.6200466,1.4190051-1.6200466.2879579,0,.7676988.06651,1.0407297.4908889.1475904.1677865.1827134.3616479.202931.4797409l-.5165859.0940965c-.099576-.4502649-.3875339-.6422368-.7140159-.6422368-.8359307,0-.8839237.8340198-.8839237,1.1975572,0,.2012304,0,1.2013362.8506473,1.2013362.6864508,0,.7658093-.6127608.7879163-.7731783l.5239549.055362Z"/><path class="cls-4" d="M387.4559584,9.8287378c-.0867275.003779-.2361859.044403-.4003824.044403-.7344438,0-.7344438-.4428959-.7344438-.9558917v-1.7989811h-.3856444v-.4170099h.3856444v-.7695883l.5239549-.3283929v1.0979812h.5462508v.4170099h-.5462508v1.8174981c0,.247145,0,.4538549.3119544.4538549.073879,0,.1679754-.0239965.2342964-.033255l.0646205.4723719Z"/><path class="cls-4" d="M388.1590367,6.1032352h.5277339v-.5978339h-.5277339v.5978339ZM388.1590367,9.8287378h.5277339v-3.1274798h-.5277339v3.1274798Z"/><path class="cls-4" d="M390.0780002,8.2621637c0-1.0055853.5978338-1.1975572.9243373-1.1975572.4761508,0,.9264157.3506889.9264157,1.1975572,0,.4631134-.1864924,1.2013362-.9264157,1.2013362-.3025069,0-.9243373-.1679754-.9243373-1.2013362M389.5374394,8.2621637c0,.2435549.0183065.7529608.3172234,1.1034607.2934374.3763859.7178163.5296234,1.1476747.5296234.418921,0,.8525368-.1698649,1.1495642-.5296234.1587169-.180824.3100649-.4742614.3100649-1.1495642,0-1.1771507-.7988537-1.5739431-1.4596291-1.5739431-.4096409,0-.8542373.1568275-1.1403057.5037374-.2785105.3487994-.3245924.7879163-.3245924,1.1163092"/><path class="cls-4" d="M393.3199828,6.701258h.4852204v.4391169h.0204065c.3043964-.4650029.7675098-.4982579.9723303-.4982579.3302824,0,.7676988.1347205.9466332.4447854.125462.2599935.125462.4925894.125462.8209823v1.920853h-.5277339v-1.894967c0-.2713304,0-.8468683-.6550853-.8468683-.2932485,0-.5995344.169676-.7176273.3930134-.1071123.225038-.1071123.4538549-.1071123.6439373v1.7048846h-.5424935v-3.1274798Z"/></g></g></svg>