<?xml version="1.0" encoding="UTF-8"?><svg id="_レイヤー_2" xmlns="http://www.w3.org/2000/svg" xmlns:xlink="http://www.w3.org/1999/xlink" viewBox="0 0 390 40"><defs><style>.cls-1{fill:none;}.cls-2{fill:#231815;}.cls-3{clip-path:url(#clippath);}</style><clipPath id="clippath"><rect class="cls-1" width="390" height="40"/></clipPath></defs><g id="_文字"><g class="cls-3"><path class="cls-2" d="M71.6490751,38.6484375c-4.6435547,0-7.8994141-1.6259766-9.7675781-4.8779297-1.8701172-3.2519531-2.8037109-7.8867188-2.8037109-13.9042969s.9335938-10.6601562,2.8037109-13.9287109c1.8681641-3.2685547,5.1240234-4.9033203,9.7675781-4.9033203,4.6425781,0,7.9033203,1.6347656,9.7802734,4.9033203,1.8613281,3.2685547,2.7910156,7.9111328,2.7910156,13.9287109s-.9345703,10.6523438-2.8027344,13.9042969c-1.8701172,3.2519531-5.1259766,4.8779297-9.7685547,4.8779297ZM75.8482938,29.4707031c.6533203-2.2119141.9804688-5.4140625.9804688-9.6044922,0-4.3916016-.3310547-7.6435547-.9931641-9.7548828-.6621094-2.1123047-2.0576172-3.1689453-4.1865234-3.1689453s-3.5371094,1.0566406-4.2236328,3.1689453c-.6875,2.1113281-1.03125,5.3632812-1.03125,9.7548828,0,4.1904297.34375,7.3964844,1.03125,9.6171875.6865234,2.2216797,2.0947266,3.3320312,4.2236328,3.3320312s3.5283203-1.1152344,4.1992188-3.3447266Z"/><path class="cls-2" d="M105.952786,37.7431641h-7.3417969V12.5996094h-8.5742188v-4.8769531c2.2626953-.1005859,3.8466797-.2519531,4.7519531-.453125,1.4414062-.3183594,2.6152344-.9550781,3.5205078-1.9111328.6191406-.6533203,1.0888672-1.5244141,1.4072266-2.6142578.1845703-.6542969.2773438-1.1396484.2773438-1.4580078h5.9589844v36.4570312Z"/><path class="cls-2" d="M128.2174345,8.703125c-.8554688-1.0224609-2.0791016-1.5341797-3.6708984-1.5341797-2.1796875,0-3.6630859.8134766-4.4511719,2.4394531-.4521484.9384766-.7207031,2.4306641-.8037109,4.4746094h-6.9648438c.1171875-3.1005859.6787109-5.6064453,1.6845703-7.5175781,1.9101562-3.6367188,5.3046875-5.4560547,10.1826172-5.4560547,3.8554688,0,6.9228516,1.0693359,9.2021484,3.2060547s3.4199219,4.9658203,3.4199219,8.4853516c0,2.6992188-.8046875,5.0966797-2.4140625,7.1914062-1.0556641,1.3916016-2.7910156,2.9414062-5.2041016,4.6513672l-2.8662109,2.0371094c-1.7939453,1.2734375-3.0214844,2.1953125-3.6835938,2.765625-.6630859.5693359-1.2197266,1.2314453-1.671875,1.9863281h15.9150391v6.3105469h-24.9667969c.0664062-2.6152344.6279297-5.0039062,1.6845703-7.1660156,1.0224609-2.4296875,3.4355469-5.0029297,7.2412109-7.71875,3.3017578-2.3632812,5.4394531-4.0566406,6.4111328-5.0791016,1.4921875-1.5917969,2.2382812-3.3349609,2.2382812-5.2294922,0-1.5419922-.4277344-2.8242188-1.2822266-3.8466797Z"/><path class="cls-2" d="M154.5240751,38.6484375c-4.6435547,0-7.8994141-1.6259766-9.7675781-4.8779297-1.8701172-3.2519531-2.8037109-7.8867188-2.8037109-13.9042969s.9335938-10.6601562,2.8037109-13.9287109c1.8681641-3.2685547,5.1240234-4.9033203,9.7675781-4.9033203,4.6425781,0,7.9033203,1.6347656,9.7802734,4.9033203,1.8613281,3.2685547,2.7910156,7.9111328,2.7910156,13.9287109s-.9345703,10.6523438-2.8027344,13.9042969c-1.8701172,3.2519531-5.1259766,4.8779297-9.7685547,4.8779297ZM158.7232938,29.4707031c.6533203-2.2119141.9804688-5.4140625.9804688-9.6044922,0-4.3916016-.3310547-7.6435547-.9931641-9.7548828-.6621094-2.1123047-2.0576172-3.1689453-4.1865234-3.1689453s-3.5371094,1.0566406-4.2236328,3.1689453c-.6875,2.1113281-1.03125,5.3632812-1.03125,9.7548828,0,4.1904297.34375,7.3964844,1.03125,9.6171875.6865234,2.2216797,2.0947266,3.3320312,4.2236328,3.3320312s3.5283203-1.1152344,4.1992188-3.3447266Z"/><path class="cls-2" d="M173.6129423,14.0175781h14.4326172v6.7890625h-14.4326172v-6.7890625Z"/><path class="cls-2" d="M211.5885282,13.0019531c-1.9101562,2.7158203-3.5117188,5.515625-4.8017578,8.3984375-1.0224609,2.2626953-1.9453125,5.0283203-2.765625,8.296875-.8222656,3.2685547-1.2324219,5.9511719-1.2324219,8.0458984h-7.4423828c.2177734-6.5371094,2.3632812-13.3339844,6.4365234-20.390625,2.6318359-4.375,4.8359375-7.4257812,6.6132812-9.1523438h-18.1787109l.1005859-6.4365234h25.7460938v5.6064453c-1.0722656,1.0566406-2.5644531,2.9335938-4.4755859,5.6318359Z"/><path class="cls-2" d="M232.3141141,38.7988281c-2.7324219,0-5.1875-.8085938-7.3671875-2.4257812-2.1787109-1.6171875-3.4277344-3.9765625-3.7460938-7.078125h7.140625c.1679688,1.0732422.6201172,1.9443359,1.3583984,2.6152344.7373047.6708984,1.7177734,1.0058594,2.9414062,1.0058594,2.3632812,0,4.0224609-1.3076172,4.9785156-3.9228516.5195312-1.4414062.8457031-3.5449219.9804688-6.3105469-.6542969.8212891-1.3496094,1.4501953-2.0869141,1.8857422-1.3417969.8046875-2.9921875,1.2070312-4.953125,1.2070312-2.9003906,0-5.4736328-1.0019531-7.71875-3.0048828-2.2470703-2.0029297-3.3691406-4.890625-3.3691406-8.6621094,0-3.9052734,1.1269531-7.0693359,3.3808594-9.4912109,2.2548828-2.421875,5.1835938-3.6328125,8.7880859-3.6328125,5.5478516,0,9.3535156,2.4550781,11.4150391,7.3662109,1.1728516,2.7832031,1.7597656,6.4453125,1.7597656,10.9882812,0,4.4082031-.5615234,8.0869141-1.6845703,11.0371094-2.1455078,5.6162109-6.0849609,8.4228516-11.8173828,8.4228516ZM229.8004423,7.9990234c-1.375,1.0722656-2.0625,2.8916016-2.0625,5.4560547,0,2.1621094.4404297,3.7841797,1.3203125,4.8652344s2.2333984,1.6210938,4.0605469,1.6210938c.9892578,0,1.9189453-.2841797,2.7910156-.8544922,1.6259766-1.0390625,2.4384766-2.8408203,2.4384766-5.4052734,0-2.0625-.4814453-3.6962891-1.4453125-4.9033203s-2.2841797-1.8105469-3.9599609-1.8105469c-1.2236328,0-2.2714844.34375-3.1425781,1.03125Z"/><path class="cls-2" d="M253.4664579,35.4550781c-2.0957031-2.1455078-3.1435547-4.7519531-3.1435547-7.8193359,0-2.0449219.4658203-3.8974609,1.3955078-5.5566406.9306641-1.6591797,2.2919922-2.9082031,4.0859375-3.7460938-1.7597656-1.1738281-2.9042969-2.4433594-3.4316406-3.8095703-.5283203-1.3662109-.7919922-2.6435547-.7919922-3.8339844,0-2.6484375.9970703-4.9072266,2.9912109-6.7763672,1.9951172-1.8691406,4.8115234-2.8037109,8.4482422-2.8037109,3.6376953,0,6.453125.9345703,8.4482422,2.8037109s2.9921875,4.1279297,2.9921875,6.7763672c0,1.1904297-.2636719,2.4677734-.7919922,3.8339844s-1.671875,2.5517578-3.4316406,3.5576172c1.7929688,1.0058594,3.1425781,2.3388672,4.0478516,3.9980469s1.3574219,3.5117188,1.3574219,5.5566406c0,3.0673828-1.1357422,5.6787109-3.4072266,7.8320312-2.2714844,2.1542969-5.4433594,3.2304688-9.5166016,3.2304688s-7.1572266-1.0810547-9.2519531-3.2431641ZM257.765286,27.1582031c0,1.7939453.4658203,3.1845703,1.3955078,4.1738281.9306641.9892578,2.2167969,1.4833984,3.859375,1.4833984s2.9296875-.4941406,3.859375-1.4833984c.9306641-.9892578,1.3955078-2.3798828,1.3955078-4.1738281,0-1.8613281-.4736328-3.2724609-1.4199219-4.2373047-.9472656-.9628906-2.2255859-1.4453125-3.8349609-1.4453125-1.6083984,0-2.8876953.4824219-3.8339844,1.4453125-.9472656.9648438-1.4208984,2.3759766-1.4208984,4.2373047ZM259.6510282,14.7373047c.8046875.8378906,1.9277344,1.2568359,3.3691406,1.2568359,1.4589844,0,2.5859375-.4189453,3.3818359-1.2568359s1.1943359-1.9189453,1.1943359-3.2431641c0-1.4414062-.3984375-2.5693359-1.1943359-3.3818359-.7958984-.8134766-1.9228516-1.2197266-3.3818359-1.2197266-1.4414062,0-2.5683594.40625-3.3818359,1.2197266-.8125.8125-1.21875,1.9404297-1.21875,3.3818359,0,1.3242188.4101562,2.4052734,1.2314453,3.2431641Z"/><path class="cls-2" d="M280.1754423,14.0175781h14.4326172v6.7890625h-14.4326172v-6.7890625Z"/><path class="cls-2" d="M302.0328641,35.4550781c-2.0957031-2.1455078-3.1435547-4.7519531-3.1435547-7.8193359,0-2.0449219.4658203-3.8974609,1.3955078-5.5566406.9306641-1.6591797,2.2919922-2.9082031,4.0859375-3.7460938-1.7597656-1.1738281-2.9042969-2.4433594-3.4316406-3.8095703-.5283203-1.3662109-.7919922-2.6435547-.7919922-3.8339844,0-2.6484375.9970703-4.9072266,2.9912109-6.7763672,1.9951172-1.8691406,4.8115234-2.8037109,8.4482422-2.8037109,3.6376953,0,6.453125.9345703,8.4482422,2.8037109s2.9921875,4.1279297,2.9921875,6.7763672c0,1.1904297-.2636719,2.4677734-.7919922,3.8339844s-1.671875,2.5517578-3.4316406,3.5576172c1.7929688,1.0058594,3.1425781,2.3388672,4.0478516,3.9980469s1.3574219,3.5117188,1.3574219,5.5566406c0,3.0673828-1.1357422,5.6787109-3.4072266,7.8320312-2.2714844,2.1542969-5.4433594,3.2304688-9.5166016,3.2304688s-7.1572266-1.0810547-9.2519531-3.2431641ZM306.3316923,27.1582031c0,1.7939453.4658203,3.1845703,1.3955078,4.1738281.9306641.9892578,2.2167969,1.4833984,3.859375,1.4833984s2.9296875-.4941406,3.859375-1.4833984c.9306641-.9892578,1.3955078-2.3798828,1.3955078-4.1738281,0-1.8613281-.4736328-3.2724609-1.4199219-4.2373047-.9472656-.9628906-2.2255859-1.4453125-3.8349609-1.4453125-1.6083984,0-2.8876953.4824219-3.8339844,1.4453125-.9472656.9648438-1.4208984,2.3759766-1.4208984,4.2373047ZM308.2174345,14.7373047c.8046875.8378906,1.9277344,1.2568359,3.3691406,1.2568359,1.4589844,0,2.5859375-.4189453,3.3818359-1.2568359s1.1943359-1.9189453,1.1943359-3.2431641c0-1.4414062-.3984375-2.5693359-1.1943359-3.3818359-.7958984-.8134766-1.9228516-1.2197266-3.3818359-1.2197266-1.4414062,0-2.5683594.40625-3.3818359,1.2197266-.8125.8125-1.21875,1.9404297-1.21875,3.3818359,0,1.3242188.4101562,2.4052734,1.2314453,3.2431641Z"/><path class="cls-2" d="M341.2887235,19.6396484c-.8720703,0-1.6259766.109375-2.2636719.3271484-1.1230469.4023438-1.9697266,1.1484375-2.5390625,2.2382812l-6.4365234-.3017578,2.5644531-20.1396484h20.0898438v6.0839844h-14.9101562l-1.3076172,7.9707031c1.1064453-.7207031,1.9697266-1.1982422,2.5898438-1.4335938,1.0390625-.3847656,2.3046875-.578125,3.796875-.578125,3.0166016,0,5.6484375,1.0146484,7.8945312,3.0429688s3.3691406,4.9775391,3.3691406,8.8496094c0,3.3691406-1.0810547,6.3789062-3.2431641,9.0263672-2.1621094,2.6494141-5.3974609,3.9726562-9.7050781,3.9726562-3.4697266,0-6.3203125-.9296875-8.5488281-2.7900391-2.2294922-1.8613281-3.4697266-4.5009766-3.7216797-7.9208984h7.140625c.2851562,1.5595703.8300781,2.7617188,1.6347656,3.6083984s1.9775391,1.2695312,3.5195312,1.2695312c1.7773438,0,3.1308594-.6240234,4.0605469-1.8730469.9306641-1.2480469,1.3955078-2.8203125,1.3955078-4.7138672,0-1.8613281-.4355469-3.4326172-1.3066406-4.7148438-.8720703-1.2822266-2.2294922-1.9238281-4.0732422-1.9238281Z"/><path class="cls-2" d="M371.3160673,19.6396484c-.8720703,0-1.6259766.109375-2.2636719.3271484-1.1230469.4023438-1.9697266,1.1484375-2.5390625,2.2382812l-6.4365234-.3017578,2.5644531-20.1396484h20.0898438v6.0839844h-14.9101562l-1.3076172,7.9707031c1.1064453-.7207031,1.9697266-1.1982422,2.5898438-1.4335938,1.0390625-.3847656,2.3046875-.578125,3.796875-.578125,3.0166016,0,5.6484375,1.0146484,7.8945312,3.0429688s3.3691406,4.9775391,3.3691406,8.8496094c0,3.3691406-1.0810547,6.3789062-3.2431641,9.0263672-2.1621094,2.6494141-5.3974609,3.9726562-9.7050781,3.9726562-3.4697266,0-6.3203125-.9296875-8.5488281-2.7900391-2.2294922-1.8613281-3.4697266-4.5009766-3.7216797-7.9208984h7.140625c.2851562,1.5595703.8300781,2.7617188,1.6347656,3.6083984s1.9775391,1.2695312,3.5195312,1.2695312c1.7773438,0,3.1308594-.6240234,4.0605469-1.8730469.9306641-1.2480469,1.3955078-2.8203125,1.3955078-4.7138672,0-1.8613281-.4355469-3.4326172-1.3066406-4.7148438-.8720703-1.2822266-2.2294922-1.9238281-4.0732422-1.9238281Z"/><path class="cls-2" d="M10.7163488,21.3450447c.8474363.7741907,2.0050032,1.1544186,3.5508991,1.1544186,4.9348802,0,5.2191348-4.2428362,5.2396833-4.8014427-.0038053-3.3973593-3.8703525-5.6350885-5.1505966-6.2785378-.2637492.1307414-.4235711.2223647-.4774158.2479218l-.0409068.0253833-.05765.0323376c-4.8049298,2.2987534-4.5893606,5.694548-4.5725743,5.8574531,0,.0255572.003572.0629367.003572.0629367v.0745852c0,.0238186.0019026,2.242945,1.5049891,3.6249441Z"/><path class="cls-2" d="M36.1902397,22.5827414c4.7510851,0,5.200723-4.2734353,5.2453912-4.8932399-.0224512-3.6656225-4.3572384-5.8677108-4.3962425-5.8897952l-.0241635-.0100793-.0241635-.0187767c-.2285072-.1187452-.46824-.2359256-.7022648-.3513675-.4124926.17664-.654128.2903432-.657743.2953851l-.0372918.0187722-.0407165.0168687c-4.4835737,1.9101803-4.6024888,5.636827-4.6080065,5.9186512.0409068.5925088.471855,4.9135813,5.245201,4.9135813Z"/><path class="cls-2" d="M3.774753,2.2003028v3.8980753c2.0029103.02208,6.2821404.3362418,10.6355735,2.3889859,1.3934943-.573906,3.4373546-1.2785534,5.9307226-1.7420594,3.965104-.7265535,9.7976939-.9423116,16.0257557,1.7742232,2.409929-.9235349,6.5532667-2.2377292,10.6968385-2.1900921V2.2003028H3.774753Z"/><path class="cls-2" d="M44.2913049,17.7048011v.0544176c-.1151098,2.5772744-1.9620035,7.4432185-8.1010653,7.4432185-6.1314077,0-7.9840528-4.8659441-8.09726-7.4432185v-.0288605c-.0093229-.2088037-.0315838-4.850814,4.9013937-7.6742716-6.3154366-2.0916929-11.9991963-1.0424539-15.5034807.0933619,2.11079,1.404079,4.8829381,3.93389,4.8829381,7.5774326-.0428094,2.5501525-1.7892437,7.3907133-8.1065829,7.3907133-2.3301646,0-4.2029342-.6604874-5.5964285-1.9524279-2.1887983-2.0205803-2.3115187-4.9288808-2.3169934-5.4094249-.0428524-.6484912-.1079227-4.731895,4.8996384-7.7029582-3.1439241-1.1189515-6.0368899-1.3159329-7.4787114-1.3362743v19.7934071h43.2888902V8.9440895c-2.6402951-.0356455-5.360501.5890317-7.4787114,1.2545609,1.722461,1.1563311,4.706373,3.691184,4.706373,7.5061507Z"/><path class="cls-2" d="M10.5973173,32.8808594h-3.5527344v1.6289062h3.1103516v1.2314453h-3.1103516v2.9707031h-1.4707031v-7.0761719h5.0234375v1.2451172Z"/><path class="cls-2" d="M14.0230985,34.7363281c-.5507812,0-.9208984.1796875-1.1103516.5380859-.1054688.2021484-.1582031.5126953-.1582031.9326172v2.5048828h-1.3798828v-5.2402344h1.3076172v.9130859c.2119141-.3486328.3955078-.5878906.5527344-.7158203.2568359-.2148438.5898438-.3222656,1-.3222656.0253906,0,.046875.0009766.0654297.0029297.0175781.0009766.0566406.0039062.1171875.0068359v1.4033203c-.0859375-.0087891-.1630859-.015625-.2304688-.0185547-.0673828-.0039062-.1220703-.0048828-.1640625-.0048828Z"/><path class="cls-2" d="M19.6188016,37.1738281c-.0351562.3105469-.1972656.6259766-.4853516.9462891-.4492188.5097656-1.0771484.7646484-1.8847656.7646484-.6669922,0-1.2548828-.2148438-1.7646484-.6435547-.5097656-.4296875-.7646484-1.1289062-.7646484-2.0966797,0-.9072266.2304688-1.6025391.6904297-2.0859375.4599609-.484375,1.0566406-.7265625,1.7910156-.7265625.4355469,0,.828125.0820312,1.1777344.2451172.3486328.1640625.6376953.421875.8652344.7744141.2050781.3105469.3378906.671875.3984375,1.0820312.0351562.2402344.0498047.5859375.0439453,1.0380859h-3.5869141c.0195312.5253906.1845703.8945312.4951172,1.1054688.1894531.1318359.4169922.1972656.6826172.1972656.2822266,0,.5117188-.0800781.6875-.2402344.0966797-.0869141.1816406-.2070312.2548828-.3603516h1.3994141ZM18.2633329,35.5673828c-.0224609-.3613281-.1328125-.6367188-.3300781-.8242188s-.4414062-.28125-.7324219-.28125c-.3173828,0-.5634766.0996094-.7382812.2978516-.1748047.1992188-.2841797.46875-.3291016.8076172h2.1298828Z"/><path class="cls-2" d="M25.0055204,37.1738281c-.0351562.3105469-.1972656.6259766-.4853516.9462891-.4492188.5097656-1.0771484.7646484-1.8847656.7646484-.6669922,0-1.2548828-.2148438-1.7646484-.6435547-.5097656-.4296875-.7646484-1.1289062-.7646484-2.0966797,0-.9072266.2304688-1.6025391.6904297-2.0859375.4599609-.484375,1.0566406-.7265625,1.7910156-.7265625.4355469,0,.828125.0820312,1.1777344.2451172.3486328.1640625.6376953.421875.8652344.7744141.2050781.3105469.3378906.671875.3984375,1.0820312.0351562.2402344.0498047.5859375.0439453,1.0380859h-3.5869141c.0195312.5253906.1845703.8945312.4951172,1.1054688.1894531.1318359.4169922.1972656.6826172.1972656.2822266,0,.5117188-.0800781.6875-.2402344.0966797-.0869141.1816406-.2070312.2548828-.3603516h1.3994141ZM23.6500516,35.5673828c-.0224609-.3613281-.1328125-.6367188-.3300781-.8242188s-.4414062-.28125-.7324219-.28125c-.3173828,0-.5634766.0996094-.7382812.2978516-.1748047.1992188-.2841797.46875-.3291016.8076172h2.1298828Z"/><path class="cls-2" d="M31.7164579,38.7119141h-3.0527344v-7.0859375h3.0527344c.4394531.0058594.8046875.0576172,1.0957031.1533203.4970703.1640625.8994141.4638672,1.2070312.8994141.2470703.3525391.4150391.7333984.5048828,1.1435547.0898438.4111328.1347656.8017578.1347656,1.1738281,0,.9423828-.1894531,1.7402344-.5673828,2.3935547-.5126953.8818359-1.3046875,1.3222656-2.375,1.3222656ZM32.8170438,33.4335938c-.2275391-.3847656-.6777344-.5771484-1.3505859-.5771484h-1.3652344v4.625h1.3652344c.6982422,0,1.1855469-.3447266,1.4619141-1.0341797.1503906-.3779297.2255859-.828125.2255859-1.3505859,0-.7207031-.1123047-1.2753906-.3369141-1.6630859Z"/><path class="cls-2" d="M36.984036,31.5820312v1.2646484h-1.3896484v-1.2646484h1.3896484ZM36.984036,33.4716797v5.2402344h-1.3896484v-5.2402344h1.3896484Z"/><path class="cls-2" d="M38.4195829,34.0390625c.3613281-.4619141.9833984-.6923828,1.8652344-.6923828.5732422,0,1.0830078.1142578,1.5283203.3417969s.6679688.65625.6679688,1.2880859v2.4033203c0,.1669922.0039062.3691406.0097656.6064453.0097656.1787109.0371094.3007812.0820312.3652344.0449219.0634766.1123047.1171875.2021484.1582031v.2021484h-1.4902344c-.0419922-.1054688-.0712891-.2050781-.0869141-.2978516s-.0292969-.1992188-.0380859-.3173828c-.1894531.2050781-.4072266.3798828-.6542969.5234375-.2949219.1699219-.6279297.2548828-1,.2548828-.4746094,0-.8662109-.1347656-1.1748047-.40625-.3095703-.2705078-.4648438-.6542969-.4648438-1.1513672,0-.6435547.2490234-1.1103516.7451172-1.3984375.2724609-.1572266.6738281-.2695312,1.2021484-.3369141l.4667969-.0576172c.2529297-.0322266.4335938-.0722656.5429688-.1201172.1953125-.0830078.2929688-.2128906.2929688-.3896484,0-.2148438-.0742188-.3623047-.2236328-.4443359-.1484375-.0820312-.3671875-.1230469-.65625-.1230469-.3232422,0-.5527344.0800781-.6875.2412109-.0957031.1181641-.1601562.2783203-.1914062.4804688h-1.3222656c.0283203-.4580078.1572266-.8349609.3847656-1.1298828ZM39.4381376,37.7216797c.1279297.1054688.2851562.1582031.4716797.1582031.2949219,0,.5664062-.0859375.8144531-.2587891.2480469-.1738281.3779297-.4892578.3867188-.9472656v-.5097656c-.0859375.0546875-.1738281.0986328-.2617188.1318359-.0878906.0341797-.2089844.0654297-.3632812.09375l-.3076172.0576172c-.2880859.0517578-.4951172.1142578-.6201172.1875-.2109375.125-.3173828.3193359-.3173828.5820312,0,.234375.0664062.4023438.1972656.5048828Z"/><path class="cls-2" d="M43.6373563,31.6259766h1.3701172v7.0859375h-1.3701172v-7.0859375Z"/></g></g></svg>